<svg width="116" height="34" viewBox="0 0 116 34" fill="none" xmlns="http://www.w3.org/2000/svg">
<g style="mix-blend-mode:luminosity" clip-path="url(#clip0_21423_20014)">
<path d="M31.9111 9.92564H37.3101C40.7522 9.92564 43.5956 11.9172 43.5956 16.4643V17.4198C43.5956 22.0015 40.9364 24.0621 37.4138 24.0621H31.9111V9.92564ZM34.9272 12.4928V21.4834H37.2411C39.1981 21.4834 40.5104 20.2056 40.5104 17.3622V16.614C40.5104 13.7706 39.129 12.4928 37.1375 12.4928H34.9272ZM45.1957 12.6309H47.6132L48.0046 15.2901C48.4651 13.4828 49.6393 12.5158 51.7689 12.5158H52.5172V15.5664H51.2739C48.8219 15.5664 48.2233 16.4183 48.2233 18.8357V24.0966H45.2418V12.6309H45.1957ZM53.1158 18.594V18.2717C53.1158 14.4382 55.5678 12.3431 58.9062 12.3431C62.3137 12.3431 64.6966 14.4382 64.6966 18.2717V18.594C64.6966 22.3583 62.3828 24.3844 58.9062 24.3844C55.2109 24.3499 53.1158 22.3699 53.1158 18.594ZM61.646 18.5595V18.2717C61.646 16.142 60.5754 14.8642 58.8717 14.8642C57.2025 14.8642 56.0973 16.0384 56.0973 18.2717V18.5595C56.0973 20.6201 57.1679 21.7943 58.8717 21.7943C60.5754 21.7597 61.646 20.6201 61.646 18.5595ZM66.2622 12.6309H68.7488L69.0366 14.7951C69.6352 13.3446 70.913 12.3431 72.8009 12.3431C75.7134 12.3431 77.6359 14.4382 77.6359 18.3177V18.64C77.6359 22.4044 75.5062 24.3959 72.8009 24.3959C70.9936 24.3959 69.7503 23.5786 69.1402 22.2662V28.0567H66.2277L66.2622 12.6309ZM74.6083 18.5595V18.3062C74.6083 16.0269 73.4341 14.8987 71.8685 14.8987C70.1993 14.8987 69.0941 16.1765 69.0941 18.3062V18.5249C69.0941 20.551 70.1647 21.8288 71.8339 21.8288C73.5492 21.7943 74.6083 20.7007 74.6083 18.5595ZM82.0449 21.9785L81.7916 24.0736H79.236V8.79749H82.1485V14.657C82.7931 13.1604 84.0709 12.3431 85.8783 12.3431C88.6181 12.3776 90.6442 14.2656 90.6442 18.0645V18.4213C90.6442 22.2202 88.7217 24.3959 85.8092 24.3959C83.8868 24.3499 82.6435 23.4635 82.0449 21.9785ZM87.582 18.4213V18.1335C87.582 16.0384 86.4424 14.8642 84.8422 14.8642C83.2076 14.8642 82.0679 16.1765 82.0679 18.1681V18.4213C82.0679 20.551 83.173 21.7943 84.8077 21.7943C86.5575 21.7943 87.582 20.7007 87.582 18.4213ZM91.922 18.594V18.2717C91.922 14.4382 94.374 12.3431 97.7124 12.3431C101.12 12.3431 103.503 14.4382 103.503 18.2717V18.594C103.503 22.3583 101.154 24.3844 97.7124 24.3844C94.0171 24.3499 91.922 22.3699 91.922 18.594ZM100.475 18.5595V18.2717C100.475 16.142 99.4046 14.8642 97.7009 14.8642C96.0317 14.8642 94.9265 16.0384 94.9265 18.2717V18.5595C94.9265 20.6201 95.9971 21.7943 97.7009 21.7943C99.4161 21.7597 100.475 20.6201 100.475 18.5595ZM107.405 18.1335L103.388 12.6309H106.83L109.144 16.0729L111.492 12.6309H114.899L110.824 18.099L115.118 24.0736H111.745L109.121 20.2747L106.565 24.0736H103.042L107.405 18.1335Z" fill="white"/>
<path d="M13.3536 9.92598L6.67682 14.1853L13.3536 18.4447L6.67682 22.704L0 18.4217L6.67682 14.1623L0 9.92598L6.67682 5.66663L13.3536 9.92598ZM6.64229 24.0739L13.3191 19.8146L19.9959 24.0739L13.3191 28.3333L6.64229 24.0739ZM13.3536 18.4217L20.0305 14.1623L13.3536 9.92598L19.9959 5.66663L26.6728 9.92598L19.9959 14.1853L26.6728 18.4447L19.9959 22.704L13.3536 18.4217Z" fill="#0061FF"/>
</g>
<defs>
<clipPath id="clip0_21423_20014">
<rect width="115.458" height="34" fill="white"/>
</clipPath>
</defs>
</svg>
